<?xml version="1.0" encoding="UTF-8" standalone="no"?>
<!-- Generator: Adobe Illustrator 16.0.4, SVG Export Plug-In . SVG Version: 6.00 Build 0)  -->

<svg
   xmlns:dc="http://purl.org/dc/elements/1.1/"
   xmlns:cc="http://creativecommons.org/ns#"
   xmlns:rdf="http://www.w3.org/1999/02/22-rdf-syntax-ns#"
   xmlns:svg="http://www.w3.org/2000/svg"
   xmlns="http://www.w3.org/2000/svg"
   xmlns:sodipodi="http://sodipodi.sourceforge.net/DTD/sodipodi-0.dtd"
   xmlns:inkscape="http://www.inkscape.org/namespaces/inkscape"
   version="1.1"
   x="0px"
   y="0px"
   width="339.96px"
   height="149.16px"
   viewBox="0 0 339.96 149.16"
   style="enable-background:new 0 0 339.96 149.16;"
   xml:space="preserve"
   id="svg72"
   sodipodi:docname="logoGTI2.svg"
   inkscape:version="0.92.4 (5da689c313, 2019-01-14)"><metadata
   id="metadata78"><rdf:RDF><cc:Work
       rdf:about=""><dc:format>image/svg+xml</dc:format><dc:type
         rdf:resource="http://purl.org/dc/dcmitype/StillImage" /><dc:title /></cc:Work></rdf:RDF></metadata><defs
   id="defs76" /><sodipodi:namedview
   pagecolor="#ffffff"
   bordercolor="#666666"
   borderopacity="1"
   objecttolerance="10"
   gridtolerance="10"
   guidetolerance="10"
   inkscape:pageopacity="0"
   inkscape:pageshadow="2"
   inkscape:window-width="3840"
   inkscape:window-height="2004"
   id="namedview74"
   showgrid="false"
   inkscape:zoom="6.3287743"
   inkscape:cx="182.34066"
   inkscape:cy="68.852011"
   inkscape:window-x="-16"
   inkscape:window-y="-16"
   inkscape:window-maximized="1"
   inkscape:current-layer="svg72" />
<g
   id="Capa_2">
</g>
<g
   id="Layer_1"
   transform="matrix(1.3876575,0,0,1.3876575,-74.820298,-43.407494)"
   style="stroke-width:0.72063887">
	<path
   style="clip-rule:evenodd;fill-rule:evenodd;stroke-width:0.60348415"
   d="m 93.25,50.53 -0.41,7.289 H 92.63 C 90.49,53.81 85.78,49.44 77.17,49.44 c -11.36,0 -22.2,9.3 -22.2,25.97 0,13.63 8.69,24.05 20.98,24.05 7.68,0 13,-3.69 15.76,-8.29 h 0.21 v 5.521 c 0,12.659 -6.76,17.56 -15.97,17.56 -6.15,0 -11.27,-1.88 -14.51,-3.96 l -2.23,6.84 c 3.95,2.59 10.49,3.98 16.43,3.98 6.24,0 13.21,-1.391 18.01,-5.771 4.81,-4.32 7.06,-11.41 7.06,-22.85 V 63.92 c 0,-5.89 0.2,-9.84 0.41,-13.39 z m -1.44,28.18 c 0,1.521 -0.2,3.239 -0.71,4.76 -1.95,5.68 -6.96,9.12 -12.49,9.12 -9.73,0 -14.65,-8 -14.65,-17.63 0,-11.44 6.15,-18.66 14.75,-18.66 6.55,0 10.96,4.27 12.6,9.45 0.4,1.22 0.5,2.54 0.5,4.069 z"
   id="path3"
   inkscape:connector-curvature="0" />
	<path
   style="clip-rule:evenodd;fill:#820053;fill-rule:evenodd;stroke-width:0.60348415"
   d="m 150.5,33.069 c -3.26,0 -5.61,2.45 -5.61,5.621 0,3.06 2.25,5.509 5.41,5.509 3.57,0 5.81,-2.449 5.71,-5.509 0,-3.17 -2.14,-5.621 -5.51,-5.621 z"
   id="path5"
   inkscape:connector-curvature="0" />
	<path
   style="clip-rule:evenodd;fill:#666666;fill-rule:evenodd;stroke-width:0.60348415"
   d="m 186.74,62.24 c -0.7,0.25 -2.08,0.659 -3.72,0.659 -1.84,0 -3.35,-0.47 -4.54,-1.6 -1.05,-1.01 -1.69,-2.63 -1.69,-4.52 0.01,-3.62 2.5,-6.271 6.57,-6.271 1.4,0 2.5,0.31 3.02,0.56 l -0.37,1.28 c -0.65,-0.289 -1.46,-0.52 -2.69,-0.52 -2.95,0 -4.88,1.84 -4.88,4.88 0,3.08 1.86,4.9 4.68,4.9 1.03,0 1.73,-0.15 2.09,-0.33 v -3.62 h -2.46 v -1.261 h 3.99 z"
   id="path7"
   inkscape:connector-curvature="0" />
	<path
   style="clip-rule:evenodd;fill:#666666;fill-rule:evenodd;stroke-width:0.60348415"
   d="m 190.88,56.78 c 0,-1.03 -0.02,-1.91 -0.07,-2.72 h 1.39 l 0.05,1.709 h 0.07 c 0.4,-1.17 1.35,-1.909 2.41,-1.909 0.18,0 0.31,0.02 0.45,0.06 v 1.49 c -0.16,-0.03 -0.32,-0.05 -0.54,-0.05 -1.11,0 -1.9,0.839 -2.12,2.029 -0.04,0.221 -0.07,0.471 -0.07,0.74 v 4.65 h -1.57 z"
   id="path9"
   inkscape:connector-curvature="0" />
	<path
   style="clip-rule:evenodd;fill:#666666;fill-rule:evenodd;stroke-width:0.60348415"
   d="m 203.07,58.33 c -1.73,-0.04 -3.69,0.27 -3.69,1.96 0,1.029 0.68,1.51 1.49,1.51 1.14,0 1.86,-0.72 2.11,-1.46 0.05,-0.16 0.09,-0.34 0.09,-0.5 z m 0.23,4.45 -0.12,-1.101 h -0.06 c -0.48,0.681 -1.42,1.29 -2.66,1.29 -1.77,0 -2.67,-1.24 -2.67,-2.5 0,-2.1 1.88,-3.26 5.24,-3.24 v -0.18 c 0,-0.72 -0.2,-2.02 -1.98,-2.02 -0.81,0 -1.65,0.26 -2.27,0.649 l -0.36,-1.04 c 0.72,-0.47 1.77,-0.779 2.87,-0.779 2.66,0 3.31,1.819 3.31,3.569 v 3.261 c 0,0.75 0.03,1.489 0.14,2.09 h -1.44 z"
   id="path11"
   inkscape:connector-curvature="0" />
	<path
   style="clip-rule:evenodd;fill:#666666;fill-rule:evenodd;stroke-width:0.60348415"
   d="m 214.89,57.61 c 0,-0.2 -0.01,-0.471 -0.07,-0.67 -0.23,-1.011 -1.1,-1.83 -2.28,-1.83 -1.64,0 -2.61,1.439 -2.61,3.359 0,1.771 0.86,3.229 2.57,3.229 1.06,0 2.03,-0.709 2.32,-1.889 0.06,-0.221 0.07,-0.44 0.07,-0.69 z m 1.59,-7.62 v 10.54 c 0,0.77 0.02,1.649 0.07,2.25 h -1.42 l -0.07,-1.521 h -0.04 c -0.49,0.98 -1.55,1.71 -2.97,1.71 -2.11,0 -3.73,-1.779 -3.73,-4.42 -0.02,-2.9 1.79,-4.689 3.91,-4.689 1.33,0 2.23,0.63 2.63,1.339 h 0.03 V 49.99 Z"
   id="path13"
   inkscape:connector-curvature="0" />
	<path
   style="clip-rule:evenodd;fill:#666666;fill-rule:evenodd;stroke-width:0.60348415"
   d="m 221.88,58.44 c 0,1.899 1.1,3.35 2.64,3.35 1.52,0 2.65,-1.43 2.65,-3.391 0,-1.479 -0.74,-3.35 -2.61,-3.35 -1.87,10e-4 -2.68,1.731 -2.68,3.391 z m 6.91,-0.09 c 0,3.22 -2.23,4.62 -4.34,4.62 -2.36,0 -4.18,-1.72 -4.18,-4.479 0,-2.921 1.91,-4.63 4.33,-4.63 2.5,-10e-4 4.19,1.819 4.19,4.489 z"
   id="path15"
   inkscape:connector-curvature="0" />
	<path
   style="clip-rule:evenodd;fill:#666666;fill-rule:evenodd;stroke-width:0.60348415"
   d="M 243.73,57.569 C 243.75,56.56 243.32,55 241.53,55 c -1.6,0 -2.3,1.47 -2.43,2.569 z m -4.65,1.141 c 0.04,2.14 1.41,3.02 2.99,3.02 1.14,0 1.82,-0.199 2.42,-0.449 l 0.27,1.14 c -0.56,0.25 -1.52,0.54 -2.9,0.54 -2.69,0 -4.29,-1.77 -4.29,-4.399 0,-2.631 1.55,-4.7 4.09,-4.7 2.84,0 3.6,2.51 3.6,4.109 0,0.32 -0.04,0.58 -0.05,0.74 h -6.13 z"
   id="path17"
   inkscape:connector-curvature="0" />
	<path
   style="clip-rule:evenodd;fill:#666666;fill-rule:evenodd;stroke-width:0.60348415"
   d="m 249.02,56.42 c 0,-0.9 -0.02,-1.64 -0.07,-2.359 h 1.4 l 0.09,1.439 h 0.04 c 0.43,-0.83 1.44,-1.64 2.88,-1.64 1.21,0 3.08,0.72 3.08,3.709 v 5.211 h -1.59 v -5.03 c 0,-1.4 -0.52,-2.57 -2.01,-2.57 -1.05,0 -1.86,0.74 -2.13,1.62 -0.07,0.2 -0.11,0.47 -0.11,0.74 v 5.24 h -1.58 z"
   id="path19"
   inkscape:connector-curvature="0" />
	
		<path
   style="clip-rule:evenodd;fill:#666666;fill-rule:evenodd;stroke:#666666;stroke-width:0.51886004;stroke-linecap:square;stroke-linejoin:round;stroke-miterlimit:10"
   d="m 179.36,69.561 v 2.5 h 2.27 v 1.209 h -2.27 v 4.7 c 0,1.08 0.31,1.69 1.19,1.69 0.41,0 0.72,-0.05 0.92,-0.11 l 0.07,1.19 c -0.31,0.13 -0.79,0.22 -1.4,0.22 -0.74,0 -1.34,-0.24 -1.71,-0.67 -0.46,-0.471 -0.62,-1.24 -0.62,-2.271 v -4.75 h -1.35 V 72.06 h 1.35 v -2.09 z"
   id="path21"
   inkscape:connector-curvature="0" />
	
		<path
   style="clip-rule:evenodd;fill:#666666;fill-rule:evenodd;stroke:#666666;stroke-width:0.51886004;stroke-linecap:square;stroke-linejoin:round;stroke-miterlimit:10"
   d="M 192.07,75.569 C 192.09,74.56 191.66,73 189.87,73 c -1.6,0 -2.3,1.47 -2.43,2.569 z m -4.64,1.141 c 0.03,2.14 1.4,3.021 2.98,3.021 1.14,0 1.82,-0.2 2.42,-0.45 l 0.27,1.14 c -0.56,0.25 -1.52,0.54 -2.9,0.54 -2.69,0 -4.29,-1.77 -4.29,-4.399 0,-2.631 1.55,-4.7 4.09,-4.7 2.84,0 3.6,2.51 3.6,4.109 0,0.32 -0.04,0.58 -0.05,0.74 h -6.12 z"
   id="path23"
   inkscape:connector-curvature="0" />
	
		<path
   style="clip-rule:evenodd;fill:#666666;fill-rule:evenodd;stroke:#666666;stroke-width:0.51886004;stroke-linecap:square;stroke-linejoin:round;stroke-miterlimit:10"
   d="m 205.01,80.449 c -0.41,0.221 -1.33,0.511 -2.5,0.511 -2.63,0 -4.34,-1.79 -4.34,-4.45 0,-2.68 1.84,-4.63 4.68,-4.63 0.94,0 1.77,0.24 2.2,0.45 l -0.36,1.23 c -0.38,-0.221 -0.97,-0.421 -1.84,-0.421 -2,0 -3.08,1.48 -3.08,3.301 0,2.009 1.3,3.259 3.03,3.259 0.9,0 1.49,-0.239 1.94,-0.439 z"
   id="path25"
   inkscape:connector-curvature="0" />
	
		<path
   style="clip-rule:evenodd;fill:#666666;fill-rule:evenodd;stroke:#666666;stroke-width:0.51886004;stroke-linecap:square;stroke-linejoin:round;stroke-miterlimit:10"
   d="m 210.1,74.42 c 0,-0.9 -0.01,-1.64 -0.07,-2.359 h 1.41 l 0.09,1.439 h 0.03 c 0.44,-0.83 1.44,-1.64 2.88,-1.64 1.21,0 3.08,0.72 3.08,3.709 v 5.211 h -1.58 v -5.03 c 0,-1.4 -0.52,-2.57 -2.02,-2.57 -1.04,0 -1.85,0.74 -2.12,1.62 -0.07,0.2 -0.11,0.47 -0.11,0.74 v 5.24 h -1.59 z"
   id="path27"
   inkscape:connector-curvature="0" />
	
		<path
   style="clip-rule:evenodd;fill:#666666;fill-rule:evenodd;stroke:#666666;stroke-width:0.51886004;stroke-linecap:square;stroke-linejoin:round;stroke-miterlimit:10"
   d="m 224.31,76.44 c 0,1.899 1.1,3.35 2.64,3.35 1.52,0 2.65,-1.43 2.65,-3.391 0,-1.479 -0.74,-3.35 -2.61,-3.35 -1.87,10e-4 -2.68,1.731 -2.68,3.391 z m 6.91,-0.09 c 0,3.22 -2.23,4.62 -4.34,4.62 -2.36,0 -4.18,-1.72 -4.18,-4.479 0,-2.921 1.91,-4.63 4.33,-4.63 2.5,-0.001 4.19,1.819 4.19,4.489 z"
   id="path29"
   inkscape:connector-curvature="0" />
	
		<rect
   x="236.46001"
   y="67.989998"
   style="clip-rule:evenodd;fill:#666666;fill-rule:evenodd;stroke:#666666;stroke-width:0.51886004;stroke-linecap:square;stroke-linejoin:round;stroke-miterlimit:10"
   width="1.58"
   height="12.79"
   id="rect31" />
	
		<path
   style="clip-rule:evenodd;fill:#666666;fill-rule:evenodd;stroke:#666666;stroke-width:0.51886004;stroke-linecap:square;stroke-linejoin:round;stroke-miterlimit:10"
   d="m 244.92,76.44 c 0,1.899 1.09,3.35 2.64,3.35 1.52,0 2.65,-1.43 2.65,-3.391 0,-1.479 -0.74,-3.35 -2.61,-3.35 -1.87,10e-4 -2.68,1.731 -2.68,3.391 z m 6.91,-0.09 c 0,3.22 -2.23,4.62 -4.34,4.62 -2.36,0 -4.18,-1.72 -4.18,-4.479 0,-2.921 1.91,-4.63 4.33,-4.63 2.5,-0.001 4.19,1.819 4.19,4.489 z"
   id="path33"
   inkscape:connector-curvature="0" />
	
		<path
   style="clip-rule:evenodd;fill:#666666;fill-rule:evenodd;stroke:#666666;stroke-width:0.51886004;stroke-linecap:square;stroke-linejoin:round;stroke-miterlimit:10"
   d="m 262.94,75.5 c 0,-0.27 -0.02,-0.5 -0.09,-0.72 -0.29,-0.92 -1.07,-1.67 -2.22,-1.67 -1.51,0 -2.59,1.27 -2.59,3.289 0,1.711 0.86,3.131 2.57,3.131 0.98,0 1.86,-0.61 2.2,-1.62 0.09,-0.271 0.13,-0.57 0.13,-0.841 z m 1.63,-3.439 c -0.03,0.63 -0.07,1.329 -0.07,2.399 v 5.06 c 0,1.99 -0.39,3.221 -1.24,3.971 -0.85,0.8 -2.07,1.05 -3.17,1.05 -1.04,0 -2.2,-0.25 -2.9,-0.721 l 0.4,-1.209 c 0.57,0.359 1.47,0.689 2.56,0.689 1.62,0 2.8,-0.851 2.8,-3.05 v -0.97 h -0.03 c -0.49,0.81 -1.42,1.46 -2.77,1.46 -2.17,0 -3.71,-1.841 -3.71,-4.25 0,-2.95 1.92,-4.63 3.92,-4.63 1.51,0 2.34,0.8 2.72,1.52 h 0.04 l 0.07,-1.319 z"
   id="path35"
   inkscape:connector-curvature="0" />
	
		<path
   style="clip-rule:evenodd;fill:#666666;fill-rule:evenodd;stroke:#666666;stroke-width:0.51886004;stroke-linecap:square;stroke-linejoin:round;stroke-miterlimit:10"
   d="m 270.26,80.78 v -8.72 h 1.58 v 8.72 z m 3.22,-12.48 -2.19,2.57 h -1.14 l 1.59,-2.57 z"
   id="path37"
   inkscape:connector-curvature="0" />
	
		<path
   style="clip-rule:evenodd;fill:#666666;fill-rule:evenodd;stroke:#666666;stroke-width:0.51886004;stroke-linecap:square;stroke-linejoin:round;stroke-miterlimit:10"
   d="m 282.3,76.33 c -1.73,-0.04 -3.689,0.27 -3.689,1.96 0,1.029 0.689,1.51 1.5,1.51 1.13,0 1.85,-0.72 2.1,-1.46 0.06,-0.16 0.09,-0.34 0.09,-0.5 v -1.51 z m 0.24,4.45 -0.131,-1.101 h -0.049 c -0.49,0.681 -1.42,1.29 -2.67,1.29 -1.761,0 -2.66,-1.239 -2.66,-2.5 0,-2.1 1.869,-3.26 5.239,-3.239 v -0.18 c 0,-0.72 -0.2,-2.02 -1.979,-2.02 -0.811,0 -1.66,0.26 -2.271,0.649 l -0.36,-1.04 c 0.721,-0.47 1.761,-0.779 2.86,-0.779 2.671,0 3.311,1.819 3.311,3.569 v 3.261 c 0,0.75 0.04,1.489 0.149,2.09 z"
   id="path39"
   inkscape:connector-curvature="0" />
	
		<path
   style="clip-rule:evenodd;fill:#666666;fill-rule:evenodd;stroke:#666666;stroke-width:0.51886004;stroke-linecap:square;stroke-linejoin:round;stroke-miterlimit:10"
   d="m 289.409,79.16 c 0.471,0.3 1.301,0.63 2.091,0.63 1.149,0 1.69,-0.58 1.69,-1.3 0,-0.76 -0.45,-1.171 -1.621,-1.601 -1.56,-0.56 -2.3,-1.43 -2.3,-2.47 0,-1.4 1.13,-2.56 3,-2.56 0.89,0 1.66,0.26 2.15,0.539 l -0.4,1.161 c -0.34,-0.221 -0.97,-0.511 -1.779,-0.511 -0.94,0 -1.46,0.54 -1.46,1.19 0,0.72 0.52,1.04 1.66,1.479 1.509,0.57 2.279,1.33 2.279,2.62 0,1.54 -1.189,2.62 -3.26,2.62 -0.95,0 -1.83,-0.24 -2.44,-0.6 z"
   id="path41"
   inkscape:connector-curvature="0" />
	
		<path
   style="clip-rule:evenodd;fill:#666666;fill-rule:evenodd;stroke:#666666;stroke-width:0.51886004;stroke-linecap:square;stroke-linejoin:round;stroke-miterlimit:10"
   d="m 177.45,99.78 v -8.72 h 1.59 v 8.72 z m 1.77,-11.17 c 0.02,0.539 -0.38,0.979 -1.01,0.979 -0.56,0 -0.96,-0.44 -0.96,-0.979 0,-0.561 0.42,-0.99 0.99,-0.99 0.6,0 0.98,0.43 0.98,0.99 z"
   id="path43"
   inkscape:connector-curvature="0" />
	
		<path
   style="clip-rule:evenodd;fill:#666666;fill-rule:evenodd;stroke:#666666;stroke-width:0.51886004;stroke-linecap:square;stroke-linejoin:round;stroke-miterlimit:10"
   d="m 184.63,93.42 c 0,-0.9 -0.01,-1.64 -0.07,-2.359 h 1.41 l 0.09,1.439 h 0.03 c 0.44,-0.83 1.44,-1.64 2.88,-1.64 1.21,0 3.08,0.72 3.08,3.709 v 5.211 h -1.58 v -5.03 c 0,-1.4 -0.52,-2.57 -2.02,-2.57 -1.04,0 -1.85,0.74 -2.12,1.62 -0.07,0.2 -0.11,0.47 -0.11,0.74 v 5.24 h -1.59 z"
   id="path45"
   inkscape:connector-curvature="0" />
	
		<path
   style="clip-rule:evenodd;fill:#666666;fill-rule:evenodd;stroke:#666666;stroke-width:0.51886004;stroke-linecap:square;stroke-linejoin:round;stroke-miterlimit:10"
   d="m 199.43,88.561 v 2.5 h 2.27 v 1.209 h -2.27 v 4.7 c 0,1.08 0.31,1.69 1.19,1.69 0.41,0 0.72,-0.05 0.92,-0.11 l 0.07,1.19 c -0.31,0.13 -0.79,0.22 -1.4,0.22 -0.74,0 -1.34,-0.24 -1.72,-0.67 -0.45,-0.471 -0.61,-1.24 -0.61,-2.271 v -4.75 h -1.35 V 91.06 h 1.35 v -2.09 z"
   id="path47"
   inkscape:connector-curvature="0" />
	
		<path
   style="clip-rule:evenodd;fill:#666666;fill-rule:evenodd;stroke:#666666;stroke-width:0.51886004;stroke-linecap:square;stroke-linejoin:round;stroke-miterlimit:10"
   d="M 211.87,94.569 C 211.89,93.56 211.46,92 209.67,92 c -1.6,0 -2.3,1.47 -2.43,2.569 z m -4.65,1.141 c 0.04,2.14 1.41,3.021 2.99,3.021 1.14,0 1.82,-0.2 2.42,-0.45 l 0.27,1.14 c -0.56,0.25 -1.52,0.54 -2.9,0.54 -2.69,0 -4.29,-1.77 -4.29,-4.399 0,-2.631 1.55,-4.7 4.09,-4.7 2.84,0 3.6,2.51 3.6,4.109 0,0.32 -0.04,0.58 -0.05,0.74 h -6.13 z"
   id="path49"
   inkscape:connector-curvature="0" />
	
		<path
   style="clip-rule:evenodd;fill:#666666;fill-rule:evenodd;stroke:#666666;stroke-width:0.51886004;stroke-linecap:square;stroke-linejoin:round;stroke-miterlimit:10"
   d="m 218.33,93.78 c 0,-1.03 -0.02,-1.91 -0.07,-2.72 h 1.38 l 0.06,1.709 h 0.07 c 0.4,-1.17 1.35,-1.909 2.41,-1.909 0.18,0 0.31,0.02 0.45,0.06 v 1.49 c -0.16,-0.03 -0.32,-0.05 -0.54,-0.05 -1.11,0 -1.91,0.839 -2.12,2.029 -0.04,0.221 -0.07,0.471 -0.07,0.74 v 4.65 h -1.57 z"
   id="path51"
   inkscape:connector-curvature="0" />
	
		<path
   style="clip-rule:evenodd;fill:#666666;fill-rule:evenodd;stroke:#666666;stroke-width:0.51886004;stroke-linecap:square;stroke-linejoin:round;stroke-miterlimit:10"
   d="m 231.69,95.33 c -1.73,-0.04 -3.69,0.27 -3.69,1.96 0,1.029 0.68,1.51 1.49,1.51 1.14,0 1.86,-0.72 2.11,-1.46 0.05,-0.16 0.09,-0.34 0.09,-0.5 z m 0.23,4.45 -0.12,-1.101 h -0.06 c -0.48,0.681 -1.42,1.29 -2.66,1.29 -1.77,0 -2.67,-1.239 -2.67,-2.5 0,-2.1 1.87,-3.26 5.24,-3.239 v -0.18 c 0,-0.72 -0.2,-2.02 -1.98,-2.02 -0.81,0 -1.66,0.26 -2.27,0.649 l -0.36,-1.04 c 0.72,-0.47 1.77,-0.779 2.87,-0.779 2.66,0 3.31,1.819 3.31,3.569 v 3.261 c 0,0.75 0.03,1.489 0.14,2.09 z"
   id="path53"
   inkscape:connector-curvature="0" />
	
		<path
   style="clip-rule:evenodd;fill:#666666;fill-rule:evenodd;stroke:#666666;stroke-width:0.51886004;stroke-linecap:square;stroke-linejoin:round;stroke-miterlimit:10"
   d="m 244.95,99.449 c -0.41,0.221 -1.33,0.511 -2.5,0.511 -2.63,0 -4.34,-1.79 -4.34,-4.45 0,-2.68 1.84,-4.63 4.68,-4.63 0.94,0 1.77,0.24 2.2,0.45 l -0.36,1.23 c -0.38,-0.221 -0.97,-0.421 -1.84,-0.421 -1.99,0 -3.08,1.48 -3.08,3.301 0,2.009 1.3,3.259 3.03,3.259 0.9,0 1.49,-0.239 1.94,-0.439 z"
   id="path55"
   inkscape:connector-curvature="0" />
	
		<path
   style="clip-rule:evenodd;fill:#666666;fill-rule:evenodd;stroke:#666666;stroke-width:0.51886004;stroke-linecap:square;stroke-linejoin:round;stroke-miterlimit:10"
   d="m 251.92,88.561 v 2.5 h 2.27 v 1.209 h -2.27 v 4.7 c 0,1.08 0.3,1.69 1.19,1.69 0.41,0 0.72,-0.05 0.92,-0.11 l 0.07,1.19 c -0.31,0.13 -0.8,0.22 -1.41,0.22 -0.74,0 -1.33,-0.24 -1.71,-0.67 -0.45,-0.471 -0.61,-1.24 -0.61,-2.271 v -4.75 h -1.35 V 91.06 h 1.35 v -2.09 z"
   id="path57"
   inkscape:connector-curvature="0" />
	
		<path
   style="clip-rule:evenodd;fill:#666666;fill-rule:evenodd;stroke:#666666;stroke-width:0.51886004;stroke-linecap:square;stroke-linejoin:round;stroke-miterlimit:10"
   d="m 258.94,99.78 v -8.72 h 1.58 v 8.72 z m 1.76,-11.17 c 0.02,0.539 -0.38,0.979 -1.01,0.979 -0.55,0 -0.95,-0.44 -0.95,-0.979 0,-0.561 0.41,-0.99 0.99,-0.99 0.59,0 0.97,0.43 0.97,0.99 z"
   id="path59"
   inkscape:connector-curvature="0" />
	
		<path
   style="clip-rule:evenodd;fill:#666666;fill-rule:evenodd;stroke:#666666;stroke-width:0.51886004;stroke-linecap:square;stroke-linejoin:round;stroke-miterlimit:10"
   d="m 266.73,91.061 1.71,4.899 c 0.29,0.79 0.52,1.51 0.7,2.23 h 0.06 c 0.2,-0.721 0.45,-1.44 0.74,-2.23 l 1.69,-4.899 h 1.66 l -3.42,8.72 h -1.52 l -3.31,-8.72 z"
   id="path61"
   inkscape:connector-curvature="0" />
	
		<path
   style="clip-rule:evenodd;fill:#666666;fill-rule:evenodd;stroke:#666666;stroke-width:0.51886004;stroke-linecap:square;stroke-linejoin:round;stroke-miterlimit:10"
   d="m 282.27,95.33 c -1.729,-0.04 -3.689,0.27 -3.689,1.96 0,1.029 0.68,1.51 1.489,1.51 1.13,0 1.851,-0.72 2.11,-1.46 0.05,-0.16 0.09,-0.34 0.09,-0.5 z m 0.23,4.45 -0.13,-1.101 h -0.051 c -0.489,0.681 -1.42,1.29 -2.66,1.29 -1.77,0 -2.669,-1.239 -2.669,-2.5 0,-2.1 1.87,-3.26 5.239,-3.239 v -0.18 c 0,-0.72 -0.199,-2.02 -1.979,-2.02 -0.81,0 -1.66,0.26 -2.271,0.649 l -0.359,-1.04 c 0.72,-0.47 1.77,-0.779 2.859,-0.779 2.67,0 3.32,1.819 3.32,3.569 v 3.261 c 0,0.75 0.03,1.489 0.141,2.09 z"
   id="path63"
   inkscape:connector-curvature="0" />
	
		<path
   style="clip-rule:evenodd;fill:#666666;fill-rule:evenodd;stroke:#666666;stroke-width:0.51886004;stroke-linecap:square;stroke-linejoin:round;stroke-miterlimit:10"
   d="m 289.11,98.16 c 0.459,0.3 1.289,0.63 2.08,0.63 1.159,0 1.699,-0.58 1.699,-1.3 0,-0.76 -0.449,-1.171 -1.62,-1.601 -1.57,-0.56 -2.31,-1.43 -2.31,-2.47 0,-1.4 1.14,-2.56 3.01,-2.56 0.88,0 1.65,0.26 2.141,0.539 l -0.4,1.161 c -0.34,-0.221 -0.97,-0.511 -1.78,-0.511 -0.93,0 -1.46,0.54 -1.46,1.19 0,0.72 0.53,1.04 1.66,1.479 1.51,0.57 2.29,1.33 2.29,2.62 0,1.54 -1.19,2.62 -3.261,2.62 -0.96,0 -1.84,-0.24 -2.449,-0.6 z"
   id="path65"
   inkscape:connector-curvature="0" />
	<path
   style="clip-rule:evenodd;fill:#820053;fill-rule:evenodd;stroke-width:0.60348415"
   d="m 115.25,33.49 v 16.989 h -11.76 v 6.961 h 11.76 v 27.11 c 0,5.85 0.94,10.149 3.56,12.63 2.19,2.28 5.55,3.52 9.74,3.52 3.48,0 6.24,-0.469 7.97,-1.139 l -0.41,-6.33 c -1.12,0.3 -2.89,0.609 -5.24,0.609 -5.01,0 -6.74,-3.49 -6.74,-9.649 V 57.44 h 22.8 v 42.24 h 10.08 V 56.09 c -0.24,-0.391 -4.89,-5.61 -4.89,-5.61 H 124.13 V 31.13 Z"
   id="path67"
   inkscape:connector-curvature="0" />
	<path
   style="clip-rule:evenodd;fill:#820053;fill-rule:evenodd;stroke-width:0.60348415"
   d="m 146.93,55.52 c 0,-2.779 2.26,-5.04 5.04,-5.04 2.78,0 5.04,2.261 5.04,5.04 0,2.78 -2.26,5.041 -5.04,5.041 -2.78,0 -5.04,-2.261 -5.04,-5.041 z"
   id="path69"
   inkscape:connector-curvature="0" />
</g>
</svg>